<!-- <svg id="visual" viewBox="0 0 960 540" width="960" height="540" xmlns="http://www.w3.org/2000/svg" xmlns:xlink="http://www.w3.org/1999/xlink" version="1.1"><rect x="0" y="0" width="960" height="540" fill="#111f25"></rect><path d="M0 76L11.5 74.5C23 73 46 70 68.8 66.5C91.7 63 114.3 59 137.2 53.7C160 48.3 183 41.7 205.8 34.8C228.7 28 251.3 21 274.2 19.5C297 18 320 22 342.8 28.5C365.7 35 388.3 44 411.2 42.7C434 41.3 457 29.7 480 27.2C503 24.7 526 31.3 548.8 43.3C571.7 55.3 594.3 72.7 617.2 76.7C640 80.7 663 71.3 685.8 66.5C708.7 61.7 731.3 61.3 754.2 60.8C777 60.3 800 59.7 822.8 54.2C845.7 48.7 868.3 38.3 891.2 34.2C914 30 937 32 948.5 33L960 34L960 0L948.5 0C937 0 914 0 891.2 0C868.3 0 845.7 0 822.8 0C800 0 777 0 754.2 0C731.3 0 708.7 0 685.8 0C663 0 640 0 617.2 0C594.3 0 571.7 0 548.8 0C526 0 503 0 480 0C457 0 434 0 411.2 0C388.3 0 365.7 0 342.8 0C320 0 297 0 274.2 0C251.3 0 228.7 0 205.8 0C183 0 160 0 137.2 0C114.3 0 91.7 0 68.8 0C46 0 23 0 11.5 0L0 0Z" fill="#0066FF" stroke-linecap="round" stroke-linejoin="miter"></path></svg> -->

<svg id="visual" viewBox="0 0 960 540" width="960" height="540" xmlns="http://www.w3.org/2000/svg" xmlns:xlink="http://www.w3.org/1999/xlink" version="1.1"><rect x="0" y="0" width="960" height="540" fill="#c9cdd0"></rect><path d="M0 186L22.8 178.3C45.7 170.7 91.3 155.3 137 152.7C182.7 150 228.3 160 274 162C319.7 164 365.3 158 411.2 154.7C457 151.3 503 150.7 548.8 161.5C594.7 172.3 640.3 194.7 686 205.7C731.7 216.7 777.3 216.3 823 214.8C868.7 213.3 914.3 210.7 937.2 209.3L960 208L960 0L937.2 0C914.3 0 868.7 0 823 0C777.3 0 731.7 0 686 0C640.3 0 594.7 0 548.8 0C503 0 457 0 411.2 0C365.3 0 319.7 0 274 0C228.3 0 182.7 0 137 0C91.3 0 45.7 0 22.8 0L0 0Z" fill="#92003a"></path><path d="M0 137L22.8 132.2C45.7 127.3 91.3 117.7 137 121.2C182.7 124.7 228.3 141.3 274 146.3C319.7 151.3 365.3 144.7 411.2 140.7C457 136.7 503 135.3 548.8 132.8C594.7 130.3 640.3 126.7 686 124C731.7 121.3 777.3 119.7 823 126.8C868.7 134 914.3 150 937.2 158L960 166L960 0L937.2 0C914.3 0 868.7 0 823 0C777.3 0 731.7 0 686 0C640.3 0 594.7 0 548.8 0C503 0 457 0 411.2 0C365.3 0 319.7 0 274 0C228.3 0 182.7 0 137 0C91.3 0 45.7 0 22.8 0L0 0Z" fill="#9f0945"></path><path d="M0 80L22.8 82.7C45.7 85.3 91.3 90.7 137 97.8C182.7 105 228.3 114 274 118.5C319.7 123 365.3 123 411.2 119.7C457 116.3 503 109.7 548.8 113.2C594.7 116.7 640.3 130.3 686 132C731.7 133.7 777.3 123.3 823 114C868.7 104.7 914.3 96.3 937.2 92.2L960 88L960 0L937.2 0C914.3 0 868.7 0 823 0C777.3 0 731.7 0 686 0C640.3 0 594.7 0 548.8 0C503 0 457 0 411.2 0C365.3 0 319.7 0 274 0C228.3 0 182.7 0 137 0C91.3 0 45.7 0 22.8 0L0 0Z" fill="#ac1250"></path><path d="M0 58L22.8 59.2C45.7 60.3 91.3 62.7 137 69.7C182.7 76.7 228.3 88.3 274 89.8C319.7 91.3 365.3 82.7 411.2 82.5C457 82.3 503 90.7 548.8 89.2C594.7 87.7 640.3 76.3 686 70.7C731.7 65 777.3 65 823 69.3C868.7 73.7 914.3 82.3 937.2 86.7L960 91L960 0L937.2 0C914.3 0 868.7 0 823 0C777.3 0 731.7 0 686 0C640.3 0 594.7 0 548.8 0C503 0 457 0 411.2 0C365.3 0 319.7 0 274 0C228.3 0 182.7 0 137 0C91.3 0 45.7 0 22.8 0L0 0Z" fill="#b91b5c"></path><path d="M0 59L22.8 53.5C45.7 48 91.3 37 137 36.7C182.7 36.3 228.3 46.7 274 51C319.7 55.3 365.3 53.7 411.2 49.2C457 44.7 503 37.3 548.8 39.7C594.7 42 640.3 54 686 59C731.7 64 777.3 62 823 60C868.7 58 914.3 56 937.2 55L960 54L960 0L937.2 0C914.3 0 868.7 0 823 0C777.3 0 731.7 0 686 0C640.3 0 594.7 0 548.8 0C503 0 457 0 411.2 0C365.3 0 319.7 0 274 0C228.3 0 182.7 0 137 0C91.3 0 45.7 0 22.8 0L0 0Z" fill="#c62368"></path></svg>